<?xml version="1.0" encoding="UTF-8" standalone="no"?>
<!DOCTYPE svg PUBLIC "-//W3C//DTD SVG 1.1//EN" "http://www.w3.org/Graphics/SVG/1.1/DTD/svg11.dtd">
<svg width="100%" height="100%" viewBox="0 0 3180 976" version="1.1" xmlns="http://www.w3.org/2000/svg" xmlns:xlink="http://www.w3.org/1999/xlink" xml:space="preserve" xmlns:serif="http://www.serif.com/" style="fill-rule:evenodd;clip-rule:evenodd;stroke-linecap:round;stroke-linejoin:round;stroke-miterlimit:1.5;">
    <g transform="matrix(1,0,0,1,-8.018506,-3494.101993)">
        <g id="Horizontal-Black---OUTLINED-TEXT" serif:id="Horizontal Black - OUTLINED TEXT" transform="matrix(1,0,0,1,-6.2103,2906.909905)">
            <rect x="14.229" y="587.192" width="3179.528" height="975.591" style="fill:none;"/>
            <g transform="matrix(1,0,0,1,0.228806,-3.807912)">
                <g id="Proper-Motion" serif:id="Proper Motion" transform="matrix(2.033273,0,0,1.236305,-341.260703,3.746873)">
                    <path d="M546.951,1055.59L546.951,903.524L582.944,903.524C592.48,903.524 599.847,907.273 605.045,914.77C610.245,922.268 612.845,932.73 612.845,946.157C612.845,959.441 610.245,969.876 605.045,977.464C599.847,985.049 592.48,988.842 582.944,988.842L555.07,988.842L555.07,1055.59L546.951,1055.59ZM555.07,977.322L582.393,977.322C589.674,977.322 595.186,974.608 598.928,969.18C602.67,963.749 604.541,956.075 604.541,946.157C604.541,936.242 602.67,928.57 598.928,923.142C595.186,917.711 589.674,914.996 582.393,914.996L555.07,914.996L555.07,977.322Z" style="fill-rule:nonzero;"/>
                    <path d="M634.036,1055.59L634.036,903.524L670.586,903.524C680.122,903.524 687.514,907.201 692.763,914.555C698.012,921.908 700.636,932.244 700.636,945.561C700.636,954.243 699.441,961.642 697.05,967.757C694.659,973.873 691.366,978.527 687.17,981.717C682.975,984.908 678.134,986.503 672.648,986.503L675.191,984.235L677.021,984.235C680.558,984.235 683.718,985.622 686.502,988.397C689.287,991.172 691.53,995.961 693.232,1002.764L706.134,1055.59L697.118,1055.59L685.097,1005.032C683.468,997.782 681.071,993.116 677.904,991.036C674.737,988.953 670.697,987.912 665.785,987.912L642.155,987.912L642.155,1055.59L634.036,1055.59ZM642.155,976.736L669.551,976.736C676.98,976.736 682.634,974.077 686.513,968.758C690.393,963.44 692.333,955.774 692.333,945.76C692.333,935.743 690.393,928.112 686.513,922.866C682.634,917.619 676.98,914.996 669.551,914.996L642.155,914.996L642.155,976.736Z" style="fill-rule:nonzero;"/>
                    <path d="M722.612,979.449C722.612,963.377 724.247,949.546 727.518,937.954C730.79,926.361 735.529,917.42 741.736,911.134C747.942,904.845 755.433,901.7 764.21,901.7C772.763,901.7 780.16,904.845 786.401,911.134C792.642,917.42 797.458,926.361 800.85,937.954C804.244,949.546 805.94,963.305 805.94,979.233C805.94,995.305 804.227,1009.173 800.801,1020.839C797.375,1032.502 792.541,1041.514 786.3,1047.875C780.06,1054.234 772.696,1057.413 764.21,1057.413C755.502,1057.413 748.049,1054.234 741.852,1047.875C735.656,1041.514 730.899,1032.502 727.584,1020.839C724.269,1009.173 722.612,995.377 722.612,979.449ZM731.215,979.449C731.215,1000.109 734.018,1016.226 739.623,1027.802C745.228,1039.378 753.424,1045.165 764.21,1045.165C774.599,1045.165 782.718,1039.406 788.565,1027.886C794.412,1016.367 797.336,1000.221 797.336,979.449C797.336,958.645 794.434,942.528 788.63,931.096C782.827,919.664 774.687,913.948 764.21,913.948C753.424,913.948 745.228,919.664 739.623,931.096C734.018,942.528 731.215,958.645 731.215,979.449Z" style="fill-rule:nonzero;"/>
                    <path d="M829.189,1055.59L829.189,903.524L865.182,903.524C874.718,903.524 882.085,907.273 887.283,914.77C892.483,922.268 895.082,932.73 895.082,946.157C895.082,959.441 892.483,969.876 887.283,977.464C882.085,985.049 874.718,988.842 865.182,988.842L837.308,988.842L837.308,1055.59L829.189,1055.59ZM837.308,977.322L864.631,977.322C871.912,977.322 877.424,974.608 881.166,969.18C884.908,963.749 886.779,956.075 886.779,946.157C886.779,936.242 884.908,928.57 881.166,923.142C877.424,917.711 871.912,914.996 864.631,914.996L837.308,914.996L837.308,977.322Z" style="fill-rule:nonzero;"/>
                    <path d="M916.274,1055.59L916.274,903.524L973.816,903.524L973.816,914.996L924.243,914.996L924.243,972.691L970.902,972.691L970.902,984.214L924.243,984.214L924.243,1044.067L973.816,1044.067L973.816,1055.59L916.274,1055.59Z" style="fill-rule:nonzero;"/>
                    <path d="M995.62,1055.59L995.62,903.524L1032.171,903.524C1041.706,903.524 1049.099,907.201 1054.347,914.555C1059.596,921.908 1062.221,932.244 1062.221,945.561C1062.221,954.243 1061.025,961.642 1058.634,967.757C1056.244,973.873 1052.951,978.527 1048.755,981.717C1044.56,984.908 1039.719,986.503 1034.232,986.503L1036.775,984.235L1038.605,984.235C1042.142,984.235 1045.303,985.622 1048.087,988.397C1050.871,991.172 1053.114,995.961 1054.817,1002.764L1067.719,1055.59L1058.702,1055.59L1046.681,1005.032C1045.053,997.782 1042.655,993.116 1039.488,991.036C1036.322,988.953 1032.282,987.912 1027.369,987.912L1003.739,987.912L1003.739,1055.59L995.62,1055.59ZM1003.739,976.736L1031.136,976.736C1038.565,976.736 1044.219,974.077 1048.097,968.758C1051.977,963.44 1053.917,955.774 1053.917,945.76C1053.917,935.743 1051.977,928.112 1048.097,922.866C1044.219,917.619 1038.565,914.996 1031.136,914.996L1003.739,914.996L1003.739,976.736Z" style="fill-rule:nonzero;"/>
                    <path d="M1124.571,1055.59L1124.571,903.524L1131.706,903.524L1170.224,1046.739L1166.461,1046.739L1205.083,903.524L1212.086,903.524L1212.086,1055.59L1204.629,1055.59L1204.629,919.327L1208.137,919.327L1171.289,1055.59L1165.439,1055.59L1128.489,919.162L1132.028,919.162L1132.028,1055.59L1124.571,1055.59Z" style="fill-rule:nonzero;"/>
                    <path d="M1235.414,979.449C1235.414,963.377 1237.05,949.546 1240.32,937.954C1243.592,926.361 1248.331,917.42 1254.538,911.134C1260.744,904.845 1268.236,901.7 1277.012,901.7C1285.565,901.7 1292.962,904.845 1299.203,911.134C1305.444,917.42 1310.26,926.361 1313.652,937.954C1317.046,949.546 1318.743,963.305 1318.743,979.233C1318.743,995.305 1317.029,1009.173 1313.603,1020.839C1310.177,1032.502 1305.343,1041.514 1299.103,1047.875C1292.862,1054.234 1285.498,1057.413 1277.012,1057.413C1268.304,1057.413 1260.852,1054.234 1254.655,1047.875C1248.458,1041.514 1243.701,1032.502 1240.386,1020.839C1237.071,1009.173 1235.414,995.377 1235.414,979.449ZM1244.017,979.449C1244.017,1000.109 1246.82,1016.226 1252.425,1027.802C1258.03,1039.378 1266.226,1045.165 1277.012,1045.165C1287.402,1045.165 1295.52,1039.406 1301.367,1027.886C1307.214,1016.367 1310.138,1000.221 1310.138,979.449C1310.138,958.645 1307.236,942.528 1301.433,931.096C1295.629,919.664 1287.489,913.948 1277.012,913.948C1266.226,913.948 1258.03,919.664 1252.425,931.096C1246.82,942.528 1244.017,958.645 1244.017,979.449Z" style="fill-rule:nonzero;"/>
                    <path d="M1358.77,1055.59L1358.77,915.242L1325.28,915.242L1325.28,903.524L1400.38,903.524L1400.38,915.242L1366.89,915.242L1366.89,1055.59L1358.77,1055.59Z" style="fill-rule:nonzero;"/>
                    <rect x="1417.01" y="903.524" width="8.119" height="152.066" style="fill-rule:nonzero;"/>
                    <path d="M1448.404,979.449C1448.404,963.377 1450.04,949.546 1453.31,937.954C1456.582,926.361 1461.321,917.42 1467.528,911.134C1473.734,904.845 1481.226,901.7 1490.002,901.7C1498.555,901.7 1505.952,904.845 1512.193,911.134C1518.434,917.42 1523.25,926.361 1526.642,937.954C1530.036,949.546 1531.733,963.305 1531.733,979.233C1531.733,995.305 1530.019,1009.173 1526.593,1020.839C1523.167,1032.502 1518.333,1041.514 1512.093,1047.875C1505.852,1054.234 1498.488,1057.413 1490.002,1057.413C1481.294,1057.413 1473.841,1054.234 1467.645,1047.875C1461.448,1041.514 1456.691,1032.502 1453.376,1020.839C1450.061,1009.173 1448.404,995.377 1448.404,979.449ZM1457.007,979.449C1457.007,1000.109 1459.81,1016.226 1465.415,1027.802C1471.02,1039.378 1479.216,1045.165 1490.002,1045.165C1500.391,1045.165 1508.51,1039.406 1514.357,1027.886C1520.204,1016.367 1523.128,1000.221 1523.128,979.449C1523.128,958.645 1520.226,942.528 1514.423,931.096C1508.619,919.664 1500.479,913.948 1490.002,913.948C1479.216,913.948 1471.02,919.664 1465.415,931.096C1459.81,942.528 1457.007,958.645 1457.007,979.449Z" style="fill-rule:nonzero;"/>
                    <path d="M1554.981,1055.59L1554.981,903.524L1561.533,903.524L1623.467,1039.915L1620.563,1039.915L1620.563,903.524L1628.108,903.524L1628.108,1055.59L1621.657,1055.59L1559.754,919.199L1562.527,919.199L1562.527,1055.59L1554.981,1055.59Z" style="fill-rule:nonzero;"/>
                </g>
                <g transform="matrix(0.875141,0,0,0.875141,-528.542802,482.29643)">
                    <circle cx="1000.918" cy="854.06" r="126.855"/>
                </g>
                <g transform="matrix(1.033662,-0.06054,-0.06054,1.019569,-397.670678,98.737927)">
                    <path d="M865.029,1099.253L1092.372,896.837" style="fill:none;stroke:black;stroke-width:15.1px;"/>
                </g>
                <g transform="matrix(0.592313,0,0,0.592313,144.15654,389.849685)">
                    <circle cx="1000.918" cy="854.06" r="126.855" style="fill:none;stroke:black;stroke-width:31.66px;"/>
                </g>
            </g>
        </g>
    </g>
</svg>
