<?xml version="1.0" encoding="UTF-8" standalone="no"?>
<!DOCTYPE svg PUBLIC "-//W3C//DTD SVG 1.1//EN" "http://www.w3.org/Graphics/SVG/1.1/DTD/svg11.dtd">
<svg width="100%" height="100%" viewBox="0 0 2341 1234" version="1.1" xmlns="http://www.w3.org/2000/svg" xmlns:xlink="http://www.w3.org/1999/xlink" xml:space="preserve" xmlns:serif="http://www.serif.com/" style="fill-rule:evenodd;clip-rule:evenodd;stroke-linecap:round;stroke-linejoin:round;stroke-miterlimit:1.5;">
    <g transform="matrix(1,0,0,1,-3424.664016,-3295.580487)">
        <g id="Stacked-Black---OUTLINED-TEXT" serif:id="Stacked Black - OUTLINED TEXT" transform="matrix(0.736256,0,0,1.264352,3414.187978,2553.162751)">
            <rect x="14.229" y="587.192" width="3179.528" height="975.591" style="fill:none;"/>
            <g transform="matrix(1.358224,0,0,0.790919,-574.227775,228.800271)">
                <g id="Proper-Motion" serif:id="Proper Motion" transform="matrix(2.033273,0,0,1.236305,-723.048578,200.476354)">
                    <path d="M603.782,1055.59L603.782,903.524L639.775,903.524C649.311,903.524 656.678,907.273 661.876,914.77C667.076,922.268 669.676,932.73 669.676,946.157C669.676,959.441 667.076,969.876 661.876,977.464C656.678,985.049 649.311,988.842 639.775,988.842L611.901,988.842L611.901,1055.59L603.782,1055.59ZM611.901,977.322L639.224,977.322C646.506,977.322 652.017,974.608 655.759,969.18C659.501,963.749 661.372,956.075 661.372,946.157C661.372,936.242 659.501,928.57 655.759,923.142C652.017,917.711 646.506,914.996 639.224,914.996L611.901,914.996L611.901,977.322Z" style="fill-rule:nonzero;"/>
                    <path d="M690.867,1055.59L690.867,903.524L727.417,903.524C736.953,903.524 744.345,907.201 749.594,914.555C754.843,921.908 757.467,932.244 757.467,945.561C757.467,954.243 756.272,961.642 753.881,967.757C751.49,973.873 748.197,978.527 744.002,981.717C739.806,984.908 734.965,986.503 729.479,986.503L732.022,984.235L733.852,984.235C737.389,984.235 740.549,985.622 743.334,988.397C746.118,991.172 748.361,995.961 750.063,1002.764L762.965,1055.59L753.949,1055.59L741.928,1005.032C740.299,997.782 737.902,993.116 734.735,991.036C731.568,988.953 727.528,987.912 722.616,987.912L698.986,987.912L698.986,1055.59L690.867,1055.59ZM698.986,976.736L726.382,976.736C733.811,976.736 739.465,974.077 743.344,968.758C747.224,963.44 749.164,955.774 749.164,945.76C749.164,935.743 747.224,928.112 743.344,922.866C739.465,917.619 733.811,914.996 726.382,914.996L698.986,914.996L698.986,976.736Z" style="fill-rule:nonzero;"/>
                    <path d="M779.443,979.449C779.443,963.377 781.079,949.546 784.349,937.954C787.621,926.361 792.36,917.42 798.567,911.134C804.773,904.845 812.265,901.7 821.041,901.7C829.594,901.7 836.991,904.845 843.232,911.134C849.473,917.42 854.289,926.361 857.681,937.954C861.075,949.546 862.772,963.305 862.772,979.233C862.772,995.305 861.058,1009.173 857.632,1020.839C854.206,1032.502 849.372,1041.514 843.132,1047.875C836.891,1054.234 829.527,1057.413 821.041,1057.413C812.333,1057.413 804.88,1054.234 798.684,1047.875C792.487,1041.514 787.73,1032.502 784.415,1020.839C781.1,1009.173 779.443,995.377 779.443,979.449ZM788.046,979.449C788.046,1000.109 790.849,1016.226 796.454,1027.802C802.059,1039.378 810.255,1045.165 821.041,1045.165C831.43,1045.165 839.549,1039.406 845.396,1027.886C851.243,1016.367 854.167,1000.221 854.167,979.449C854.167,958.645 851.265,942.528 845.462,931.096C839.658,919.664 831.518,913.948 821.041,913.948C810.255,913.948 802.059,919.664 796.454,931.096C790.849,942.528 788.046,958.645 788.046,979.449Z" style="fill-rule:nonzero;"/>
                    <path d="M886.02,1055.59L886.02,903.524L922.013,903.524C931.549,903.524 938.916,907.273 944.114,914.77C949.314,922.268 951.914,932.73 951.914,946.157C951.914,959.441 949.314,969.876 944.114,977.464C938.916,985.049 931.549,988.842 922.013,988.842L894.139,988.842L894.139,1055.59L886.02,1055.59ZM894.139,977.322L921.462,977.322C928.743,977.322 934.255,974.608 937.997,969.18C941.739,963.749 943.61,956.075 943.61,946.157C943.61,936.242 941.739,928.57 937.997,923.142C934.255,917.711 928.743,914.996 921.462,914.996L894.139,914.996L894.139,977.322Z" style="fill-rule:nonzero;"/>
                    <path d="M973.105,1055.59L973.105,903.524L1030.647,903.524L1030.647,914.996L981.074,914.996L981.074,972.691L1027.733,972.691L1027.733,984.214L981.074,984.214L981.074,1044.067L1030.647,1044.067L1030.647,1055.59L973.105,1055.59Z" style="fill-rule:nonzero;"/>
                    <path d="M1052.451,1055.59L1052.451,903.524L1089.002,903.524C1098.537,903.524 1105.93,907.201 1111.179,914.555C1116.427,921.908 1119.052,932.244 1119.052,945.561C1119.052,954.243 1117.856,961.642 1115.466,967.757C1113.075,973.873 1109.782,978.527 1105.586,981.717C1101.391,984.908 1096.55,986.503 1091.063,986.503L1093.606,984.235L1095.436,984.235C1098.973,984.235 1102.134,985.622 1104.918,988.397C1107.702,991.172 1109.946,995.961 1111.648,1002.764L1124.55,1055.59L1115.533,1055.59L1103.512,1005.032C1101.884,997.782 1099.486,993.116 1096.32,991.036C1093.153,988.953 1089.113,987.912 1084.2,987.912L1060.57,987.912L1060.57,1055.59L1052.451,1055.59ZM1060.57,976.736L1087.967,976.736C1095.396,976.736 1101.05,974.077 1104.928,968.758C1108.808,963.44 1110.748,955.774 1110.748,945.76C1110.748,935.743 1108.808,928.112 1104.928,922.866C1101.05,917.619 1095.396,914.996 1087.967,914.996L1060.57,914.996L1060.57,976.736Z" style="fill-rule:nonzero;"/>
                    <path d="M1181.402,1055.59L1181.402,903.524L1188.537,903.524L1227.055,1046.739L1223.293,1046.739L1261.915,903.524L1268.917,903.524L1268.917,1055.59L1261.46,1055.59L1261.46,919.327L1264.968,919.327L1228.121,1055.59L1222.27,1055.59L1185.32,919.162L1188.859,919.162L1188.859,1055.59L1181.402,1055.59Z" style="fill-rule:nonzero;"/>
                    <path d="M1292.245,979.449C1292.245,963.377 1293.881,949.546 1297.151,937.954C1300.423,926.361 1305.162,917.42 1311.369,911.134C1317.575,904.845 1325.067,901.7 1333.843,901.7C1342.397,901.7 1349.794,904.845 1356.034,911.134C1362.275,917.42 1367.091,926.361 1370.483,937.954C1373.877,949.546 1375.574,963.305 1375.574,979.233C1375.574,995.305 1373.861,1009.173 1370.434,1020.839C1367.008,1032.502 1362.174,1041.514 1355.934,1047.875C1349.693,1054.234 1342.33,1057.413 1333.843,1057.413C1325.135,1057.413 1317.683,1054.234 1311.486,1047.875C1305.289,1041.514 1300.533,1032.502 1297.217,1020.839C1293.903,1009.173 1292.245,995.377 1292.245,979.449ZM1300.848,979.449C1300.848,1000.109 1303.651,1016.226 1309.256,1027.802C1314.862,1039.378 1323.057,1045.165 1333.843,1045.165C1344.233,1045.165 1352.351,1039.406 1358.198,1027.886C1364.045,1016.367 1366.969,1000.221 1366.969,979.449C1366.969,958.645 1364.067,942.528 1358.264,931.096C1352.46,919.664 1344.32,913.948 1333.843,913.948C1323.057,913.948 1314.862,919.664 1309.256,931.096C1303.651,942.528 1300.848,958.645 1300.848,979.449Z" style="fill-rule:nonzero;"/>
                    <path d="M1415.602,1055.59L1415.602,915.242L1382.111,915.242L1382.111,903.524L1457.211,903.524L1457.211,915.242L1423.721,915.242L1423.721,1055.59L1415.602,1055.59Z" style="fill-rule:nonzero;"/>
                    <rect x="1473.841" y="903.524" width="8.119" height="152.066" style="fill-rule:nonzero;"/>
                    <path d="M1505.235,979.449C1505.235,963.377 1506.871,949.546 1510.141,937.954C1513.413,926.361 1518.152,917.42 1524.359,911.134C1530.565,904.845 1538.057,901.7 1546.833,901.7C1555.386,901.7 1562.784,904.845 1569.024,911.134C1575.265,917.42 1580.081,926.361 1583.473,937.954C1586.867,949.546 1588.564,963.305 1588.564,979.233C1588.564,995.305 1586.851,1009.173 1583.424,1020.839C1579.998,1032.502 1575.164,1041.514 1568.924,1047.875C1562.683,1054.234 1555.32,1057.413 1546.833,1057.413C1538.125,1057.413 1530.673,1054.234 1524.476,1047.875C1518.279,1041.514 1513.523,1032.502 1510.207,1020.839C1506.893,1009.173 1505.235,995.377 1505.235,979.449ZM1513.838,979.449C1513.838,1000.109 1516.641,1016.226 1522.246,1027.802C1527.852,1039.378 1536.047,1045.165 1546.833,1045.165C1557.223,1045.165 1565.341,1039.406 1571.188,1027.886C1577.035,1016.367 1579.959,1000.221 1579.959,979.449C1579.959,958.645 1577.057,942.528 1571.254,931.096C1565.45,919.664 1557.31,913.948 1546.833,913.948C1536.047,913.948 1527.852,919.664 1522.246,931.096C1516.641,942.528 1513.838,958.645 1513.838,979.449Z" style="fill-rule:nonzero;"/>
                    <path d="M1611.812,1055.59L1611.812,903.524L1618.364,903.524L1680.298,1039.915L1677.394,1039.915L1677.394,903.524L1684.94,903.524L1684.94,1055.59L1678.489,1055.59L1616.585,919.199L1619.358,919.199L1619.358,1055.59L1611.812,1055.59Z" style="fill-rule:nonzero;"/>
                </g>
                <g transform="matrix(0.963753,0,0,0.963753,444.35008,286.607613)">
                    <circle cx="1000.918" cy="854.06" r="126.855"/>
                </g>
                <g transform="matrix(1.138325,-0.066669,-0.066669,1.122805,588.473649,-135.788072)">
                    <path d="M865.029,1099.253L1092.372,896.837" style="fill:none;stroke:black;stroke-width:13.71px;"/>
                </g>
                <g transform="matrix(0.652288,0,0,0.652288,1185.163535,184.800182)">
                    <circle cx="1000.918" cy="854.06" r="126.855" style="fill:none;stroke:black;stroke-width:28.74px;"/>
                </g>
            </g>
        </g>
    </g>
</svg>
