<?xml version="1.0" encoding="UTF-8" standalone="no"?>
<!DOCTYPE svg PUBLIC "-//W3C//DTD SVG 1.1//EN" "http://www.w3.org/Graphics/SVG/1.1/DTD/svg11.dtd">
<svg width="100%" height="100%" viewBox="0 0 2341 1234" version="1.1" xmlns="http://www.w3.org/2000/svg" xmlns:xlink="http://www.w3.org/1999/xlink" xml:space="preserve" xmlns:serif="http://www.serif.com/" style="fill-rule:evenodd;clip-rule:evenodd;stroke-linecap:round;stroke-linejoin:round;stroke-miterlimit:1.5;">
    <g transform="matrix(1,0,0,1,-4759.734999,-1462.564503)">
        <g id="Stacked-White" serif:id="Stacked White" transform="matrix(0.736256,0,0,1.264352,4749.258961,720.146766)">
            <rect x="14.229" y="587.192" width="3179.528" height="975.591" style="fill:none;"/>
            <g transform="matrix(1.358224,0,0,0.790919,-574.227775,228.800271)">
                <g id="Proper-Motion" serif:id="Proper Motion" transform="matrix(1,0,0,1,-170.455226,412.403436)">
                    <g transform="matrix(266.666667,0,0,266.666667,650.352339,1093.103737)">
                        <path d="M0.093,-0L0.093,-0.705L0.367,-0.705C0.44,-0.705 0.496,-0.688 0.536,-0.653C0.575,-0.618 0.595,-0.57 0.595,-0.507C0.595,-0.446 0.575,-0.397 0.536,-0.362C0.496,-0.327 0.44,-0.309 0.367,-0.309L0.155,-0.309L0.155,-0L0.093,-0ZM0.155,-0.363L0.363,-0.363C0.418,-0.363 0.46,-0.375 0.489,-0.401C0.517,-0.426 0.532,-0.461 0.532,-0.507C0.532,-0.553 0.517,-0.589 0.489,-0.614C0.46,-0.639 0.418,-0.652 0.363,-0.652L0.155,-0.652L0.155,-0.363Z" style="fill:white;fill-rule:nonzero;"/>
                    </g>
                    <g transform="matrix(266.666667,0,0,266.666667,827.419006,1093.103737)">
                        <path d="M0.093,-0L0.093,-0.705L0.371,-0.705C0.444,-0.705 0.5,-0.688 0.54,-0.654C0.58,-0.62 0.6,-0.572 0.6,-0.51C0.6,-0.47 0.591,-0.436 0.573,-0.407C0.555,-0.379 0.53,-0.357 0.498,-0.342C0.466,-0.328 0.429,-0.32 0.387,-0.32L0.406,-0.331L0.42,-0.331C0.447,-0.331 0.471,-0.324 0.493,-0.312C0.514,-0.299 0.531,-0.276 0.544,-0.245L0.642,-0L0.574,-0L0.482,-0.234C0.47,-0.268 0.451,-0.29 0.427,-0.299C0.403,-0.309 0.372,-0.314 0.335,-0.314L0.155,-0.314L0.155,-0L0.093,-0ZM0.155,-0.366L0.363,-0.366C0.42,-0.366 0.463,-0.378 0.493,-0.403C0.522,-0.427 0.537,-0.463 0.537,-0.509C0.537,-0.556 0.522,-0.591 0.493,-0.615C0.463,-0.64 0.42,-0.652 0.363,-0.652L0.155,-0.652L0.155,-0.366Z" style="fill:white;fill-rule:nonzero;"/>
                    </g>
                    <g transform="matrix(266.666667,0,0,266.666667,1014.885672,1093.103737)">
                        <path d="M0.065,-0.353C0.065,-0.428 0.077,-0.492 0.102,-0.545C0.127,-0.599 0.164,-0.641 0.211,-0.67C0.258,-0.699 0.315,-0.713 0.382,-0.713C0.447,-0.713 0.504,-0.699 0.551,-0.67C0.599,-0.641 0.636,-0.599 0.662,-0.545C0.687,-0.492 0.7,-0.428 0.7,-0.354C0.7,-0.279 0.687,-0.215 0.661,-0.161C0.635,-0.107 0.598,-0.065 0.551,-0.036C0.503,-0.006 0.447,0.008 0.382,0.008C0.316,0.008 0.259,-0.006 0.212,-0.036C0.164,-0.065 0.128,-0.107 0.103,-0.161C0.078,-0.215 0.065,-0.279 0.065,-0.353ZM0.131,-0.353C0.131,-0.257 0.152,-0.182 0.195,-0.129C0.237,-0.075 0.3,-0.048 0.382,-0.048C0.461,-0.048 0.523,-0.075 0.568,-0.128C0.612,-0.182 0.635,-0.257 0.635,-0.353C0.635,-0.449 0.613,-0.524 0.568,-0.577C0.524,-0.63 0.462,-0.657 0.382,-0.657C0.3,-0.657 0.237,-0.63 0.195,-0.577C0.152,-0.524 0.131,-0.449 0.131,-0.353Z" style="fill:white;fill-rule:nonzero;"/>
                    </g>
                    <g transform="matrix(266.666667,0,0,266.666667,1224.219006,1093.103737)">
                        <path d="M0.093,-0L0.093,-0.705L0.367,-0.705C0.44,-0.705 0.496,-0.688 0.536,-0.653C0.575,-0.618 0.595,-0.57 0.595,-0.507C0.595,-0.446 0.575,-0.397 0.536,-0.362C0.496,-0.327 0.44,-0.309 0.367,-0.309L0.155,-0.309L0.155,-0L0.093,-0ZM0.155,-0.363L0.363,-0.363C0.418,-0.363 0.46,-0.375 0.489,-0.401C0.517,-0.426 0.532,-0.461 0.532,-0.507C0.532,-0.553 0.517,-0.589 0.489,-0.614C0.46,-0.639 0.418,-0.652 0.363,-0.652L0.155,-0.652L0.155,-0.363Z" style="fill:white;fill-rule:nonzero;"/>
                    </g>
                    <g transform="matrix(266.666667,0,0,266.666667,1401.285672,1093.103737)">
                        <path d="M0.093,-0L0.093,-0.705L0.531,-0.705L0.531,-0.652L0.153,-0.652L0.153,-0.384L0.509,-0.384L0.509,-0.331L0.153,-0.331L0.153,-0.053L0.531,-0.053L0.531,-0L0.093,-0Z" style="fill:white;fill-rule:nonzero;"/>
                    </g>
                    <g transform="matrix(266.666667,0,0,266.666667,1562.619006,1093.103737)">
                        <path d="M0.093,-0L0.093,-0.705L0.371,-0.705C0.444,-0.705 0.5,-0.688 0.54,-0.654C0.58,-0.62 0.6,-0.572 0.6,-0.51C0.6,-0.47 0.591,-0.436 0.573,-0.407C0.555,-0.379 0.53,-0.357 0.498,-0.342C0.466,-0.328 0.429,-0.32 0.387,-0.32L0.406,-0.331L0.42,-0.331C0.447,-0.331 0.471,-0.324 0.493,-0.312C0.514,-0.299 0.531,-0.276 0.544,-0.245L0.642,-0L0.574,-0L0.482,-0.234C0.47,-0.268 0.451,-0.29 0.427,-0.299C0.403,-0.309 0.372,-0.314 0.335,-0.314L0.155,-0.314L0.155,-0L0.093,-0ZM0.155,-0.366L0.363,-0.366C0.42,-0.366 0.463,-0.378 0.493,-0.403C0.522,-0.427 0.537,-0.463 0.537,-0.509C0.537,-0.556 0.522,-0.591 0.493,-0.615C0.463,-0.64 0.42,-0.652 0.363,-0.652L0.155,-0.652L0.155,-0.366Z" style="fill:white;fill-rule:nonzero;"/>
                    </g>
                    <g transform="matrix(266.666667,0,0,266.666667,1751.419006,1093.103737)">
                    </g>
                    <g transform="matrix(266.666667,0,0,266.666667,1824.752339,1093.103737)">
                        <path d="M0.093,-0L0.093,-0.705L0.147,-0.705L0.441,-0.041L0.412,-0.041L0.707,-0.705L0.76,-0.705L0.76,-0L0.703,-0L0.703,-0.632L0.73,-0.632L0.449,-0L0.404,-0L0.123,-0.633L0.15,-0.633L0.15,-0L0.093,-0Z" style="fill:white;fill-rule:nonzero;"/>
                    </g>
                    <g transform="matrix(266.666667,0,0,266.666667,2057.552339,1093.103737)">
                        <path d="M0.065,-0.353C0.065,-0.428 0.077,-0.492 0.102,-0.545C0.127,-0.599 0.164,-0.641 0.211,-0.67C0.258,-0.699 0.315,-0.713 0.382,-0.713C0.447,-0.713 0.504,-0.699 0.551,-0.67C0.599,-0.641 0.636,-0.599 0.662,-0.545C0.687,-0.492 0.7,-0.428 0.7,-0.354C0.7,-0.279 0.687,-0.215 0.661,-0.161C0.635,-0.107 0.598,-0.065 0.551,-0.036C0.503,-0.006 0.447,0.008 0.382,0.008C0.316,0.008 0.259,-0.006 0.212,-0.036C0.164,-0.065 0.128,-0.107 0.103,-0.161C0.078,-0.215 0.065,-0.279 0.065,-0.353ZM0.131,-0.353C0.131,-0.257 0.152,-0.182 0.195,-0.129C0.237,-0.075 0.3,-0.048 0.382,-0.048C0.461,-0.048 0.523,-0.075 0.568,-0.128C0.612,-0.182 0.635,-0.257 0.635,-0.353C0.635,-0.449 0.613,-0.524 0.568,-0.577C0.524,-0.63 0.462,-0.657 0.382,-0.657C0.3,-0.657 0.237,-0.63 0.195,-0.577C0.152,-0.524 0.131,-0.449 0.131,-0.353Z" style="fill:white;fill-rule:nonzero;"/>
                    </g>
                    <g transform="matrix(266.666667,0,0,266.666667,2254.885672,1093.103737)">
                        <path d="M0.266,-0L0.266,-0.651L0.01,-0.651L0.01,-0.705L0.583,-0.705L0.583,-0.651L0.328,-0.651L0.328,-0L0.266,-0Z" style="fill:white;fill-rule:nonzero;"/>
                    </g>
                    <g transform="matrix(266.666667,0,0,266.666667,2419.419006,1093.103737)">
                        <rect x="0.093" y="-0.705" width="0.062" height="0.705" style="fill:white;fill-rule:nonzero;"/>
                    </g>
                    <g transform="matrix(266.666667,0,0,266.666667,2490.619006,1093.103737)">
                        <path d="M0.065,-0.353C0.065,-0.428 0.077,-0.492 0.102,-0.545C0.127,-0.599 0.164,-0.641 0.211,-0.67C0.258,-0.699 0.315,-0.713 0.382,-0.713C0.447,-0.713 0.504,-0.699 0.551,-0.67C0.599,-0.641 0.636,-0.599 0.662,-0.545C0.687,-0.492 0.7,-0.428 0.7,-0.354C0.7,-0.279 0.687,-0.215 0.661,-0.161C0.635,-0.107 0.598,-0.065 0.551,-0.036C0.503,-0.006 0.447,0.008 0.382,0.008C0.316,0.008 0.259,-0.006 0.212,-0.036C0.164,-0.065 0.128,-0.107 0.103,-0.161C0.078,-0.215 0.065,-0.279 0.065,-0.353ZM0.131,-0.353C0.131,-0.257 0.152,-0.182 0.195,-0.129C0.237,-0.075 0.3,-0.048 0.382,-0.048C0.461,-0.048 0.523,-0.075 0.568,-0.128C0.612,-0.182 0.635,-0.257 0.635,-0.353C0.635,-0.449 0.613,-0.524 0.568,-0.577C0.524,-0.63 0.462,-0.657 0.382,-0.657C0.3,-0.657 0.237,-0.63 0.195,-0.577C0.152,-0.524 0.131,-0.449 0.131,-0.353Z" style="fill:white;fill-rule:nonzero;"/>
                    </g>
                    <g transform="matrix(266.666667,0,0,266.666667,2699.952339,1093.103737)">
                        <path d="M0.093,-0L0.093,-0.705L0.143,-0.705L0.615,-0.073L0.593,-0.073L0.593,-0.705L0.65,-0.705L0.65,-0L0.601,-0L0.129,-0.632L0.15,-0.632L0.15,-0L0.093,-0Z" style="fill:white;fill-rule:nonzero;"/>
                    </g>
                    <g transform="matrix(266.666667,0,0,266.666667,2898.085672,1093.103737)">
                    </g>
                </g>
                <g transform="matrix(0.963753,0,0,0.963753,444.35008,286.607613)">
                    <circle cx="1000.918" cy="854.06" r="126.855" style="fill:white;"/>
                </g>
                <g transform="matrix(1.138325,-0.066669,-0.066669,1.122805,588.473649,-135.788072)">
                    <path d="M865.029,1099.253L1092.372,896.837" style="fill:none;stroke:white;stroke-width:13.71px;"/>
                </g>
                <g transform="matrix(0.652288,0,0,0.652288,1185.163535,184.800182)">
                    <circle cx="1000.918" cy="854.06" r="126.855" style="fill:none;stroke:white;stroke-width:28.74px;"/>
                </g>
            </g>
        </g>
    </g>
</svg>
